<svg xmlns="http://www.w3.org/2000/svg" width="601.379" height="799.31" viewBox="0 0 601.379 799.31">
  <g id="hero" transform="translate(-765.5 -1.19)">
    <path id="Path_5" data-name="Path 5" d="M1400,400h0c-110.46,0-200-89.544-200-200h200Z" transform="translate(765.5 1600.5) rotate(-90)" fill="#ffc700" opacity="0.8"/>
    <path id="Path_7" data-name="Path 7" d="M1000,400.69c110.46,0,200,89.544,200,200H1000Z" transform="translate(765.5 1600.5) rotate(-90)" fill="#d5e155" opacity="0.8"/>
    <path id="Path_19" data-name="Path 19" d="M1597,101H1497a100,100,0,0,0-100,100h100a100,100,0,0,0,100-100Z" transform="translate(765.5 1600.5) rotate(-90)" fill="#ffc700" opacity="0.8"/>
    <path id="Path_31" data-name="Path 31" d="M1200,200H1000c-110.456,0-200,89.544-200,200h200c110.46,0,200-89.544,200-200Z" transform="translate(765.5 1600.5) rotate(-90)" fill="#2d3652" opacity="0.8"/>
    <path id="Path_32" data-name="Path 32" d="M1000,300H900.506C845,300,800,344.772,800,400h99.494C955,400,1000,355.228,1000,300Z" transform="translate(765.5 1600.5) rotate(-90)" fill="#f0f1f1" opacity="0.8"/>
    <path id="Path_45" data-name="Path 45" d="M1222.07,51.379a30,30,0,0,1,30-30h0a30,30,0,0,1,30,30h0a30,30,0,0,1-30,30h0a30,30,0,0,1-30-30Z" transform="translate(796.5 1485.5) rotate(-90)" fill="#6ed47c" opacity="0.8"/>
    <path id="Path_46" data-name="Path 46" d="M1318.62,51.379a30,30,0,0,1,30-30h0a30,30,0,0,1,30,30h0a30,30,0,0,1-30,30h0a30,30,0,0,1-30-30Z" transform="translate(840.5 1697.5) rotate(-90)" fill="#d5e155" opacity="0.8"/>
    <path id="Path_50" data-name="Path 50" d="M1162.07,389.31a30,30,0,0,1,30-30h0a30,30,0,0,1,30,30h0a30,30,0,0,1-30,30h0a30,30,0,0,1-30-30Z" transform="translate(765.5 1600.5) rotate(-90)" fill="#ff743c" opacity="0.8"/>
    <path id="Path_53" data-name="Path 53" d="M800,500A100,100,0,0,1,900,400h0a100,100,0,0,1,100,100h0A100,100,0,0,1,900,600H800Z" transform="translate(765.5 1600.5) rotate(-90)" fill="#ff743c" opacity="0.8"/>
    <path id="Path_54" data-name="Path 54" d="M800,548.965a51.725,51.725,0,0,1,51.725-51.724h0a51.724,51.724,0,0,1,51.723,51.724h0a51.724,51.724,0,0,1-51.723,51.725H800Z" transform="translate(765.5 1600.5) rotate(-90)" fill="#ffc700" opacity="0.8"/>
    <path id="Path_55" data-name="Path 55" d="M1400,500a100,100,0,0,0-100-100h0a100,100,0,0,0-100,100h0a100,100,0,0,0,100,100h100Z" transform="translate(765.5 1600.5) rotate(-90)" fill="#ff743c" opacity="0.8"/>
    <path id="Path_56" data-name="Path 56" d="M1400,548.275a51.726,51.726,0,0,0-51.73-51.723h0a51.724,51.724,0,0,0-51.72,51.723h0A51.725,51.725,0,0,0,1348.27,600H1400Z" transform="translate(765.5 1600.5) rotate(-90)" fill="#ffc700" opacity="0.8"/>
    <path id="Path_57" data-name="Path 57" d="M1200,100A100,100,0,0,0,1100,0h0a100,100,0,0,0-100,100h0a100,100,0,0,0,100,100h100Z" transform="translate(765.5 1600.5) rotate(-90)" fill="#d5e155" opacity="0.8"/>
    <path id="Path_58" data-name="Path 58" d="M1200,148.275a51.726,51.726,0,0,0-51.73-51.723h0a51.724,51.724,0,0,0-51.72,51.723h0A51.725,51.725,0,0,0,1148.27,200H1200Z" transform="translate(765.5 1600.5) rotate(-90)" fill="#ff743c" opacity="0.8"/>
    <path id="Path_67" data-name="Path 67" d="M1599.31,400c-110.46,0-200-89.544-200-200h200Z" transform="translate(-433.81 -198.81)" fill="#ff743c" opacity="0.8"/>
    <path id="Path_69" data-name="Path 69" d="M1599.31,600h0c-110.46,0-200-89.544-200-200h200Z" transform="translate(-233.81 -398.81)" fill="#6ed47c" opacity="0.8"/>
    <path id="Path_70" data-name="Path 70" d="M1599.31,600h0a102.07,102.07,0,0,1-102.07-102.069h102.07Z" transform="translate(-233.81 -496.741)" fill="#d5e155" opacity="0.8"/>
    <path id="Path_46-2" data-name="Path 46" d="M1318.62,51.379a30,30,0,0,1,30-30h0a30,30,0,0,1,30,30h0a30,30,0,0,1-30,30h0a30,30,0,0,1-30-30Z" transform="translate(1285.5 1696.31) rotate(-90)" fill="#d5e155" opacity="0.8"/>
  </g>
</svg>
